name GIL04_static.mot
datacolumns 141
datarows 4
range 0.48333332 0.50833333
endheader

                time	           pelvis_tx	           pelvis_ty	           pelvis_tz	         pelvis_tilt	         pelvis_list	     pelvis_rotation	       hip_flexion_r	     hip_adduction_r	      hip_rotation_r	        knee_angle_r	       ankle_angle_r	    subtalar_angle_r	         mtp_angle_r	       hip_flexion_l	     hip_adduction_l	      hip_rotation_l	        knee_angle_l	       ankle_angle_l	    subtalar_angle_l	         mtp_angle_l	    lumbar_extension	      lumbar_bending	     lumbar_rotation	    ground_marker_px	    ground_marker_py	    ground_marker_pz	    ground_marker_px	    ground_marker_py	    ground_marker_pz	    ground_marker_px	    ground_marker_py	    ground_marker_pz	    ground_marker_px	    ground_marker_py	    ground_marker_pz	    ground_marker_px	    ground_marker_py	    ground_marker_pz	    ground_marker_px	    ground_marker_py	    ground_marker_pz	    ground_marker_px	    ground_marker_py	    ground_marker_pz	    ground_marker_px	    ground_marker_py	    ground_marker_pz	    ground_marker_px	    ground_marker_py	    ground_marker_pz	    ground_marker_px	    ground_marker_py	    ground_marker_pz	    ground_marker_px	    ground_marker_py	    ground_marker_pz	    ground_marker_px	    ground_marker_py	    ground_marker_pz	    ground_marker_px	    ground_marker_py	    ground_marker_pz	    ground_marker_px	    ground_marker_py	    ground_marker_pz	    ground_marker_px	    ground_marker_py	    ground_marker_pz	    ground_marker_px	    ground_marker_py	    ground_marker_pz	    ground_marker_px	    ground_marker_py	    ground_marker_pz	    ground_marker_px	    ground_marker_py	    ground_marker_pz	    ground_marker_px	    ground_marker_py	    ground_marker_pz	    ground_marker_px	    ground_marker_py	    ground_marker_pz	    ground_marker_px	    ground_marker_py	    ground_marker_pz	    ground_marker_px	    ground_marker_py	    ground_marker_pz	    ground_marker_px	    ground_marker_py	    ground_marker_pz	    ground_marker_px	    ground_marker_py	    ground_marker_pz	    ground_marker_px	    ground_marker_py	    ground_marker_pz	    ground_marker_px	    ground_marker_py	    ground_marker_pz	    ground_marker_px	    ground_marker_py	    ground_marker_pz	    ground_marker_px	    ground_marker_py	    ground_marker_pz	    ground_marker_px	    ground_marker_py	    ground_marker_pz	    ground_marker_px	    ground_marker_py	    ground_marker_pz	    ground_marker_px	    ground_marker_py	    ground_marker_pz	    ground_marker_px	    ground_marker_py	    ground_marker_pz	    ground_marker_px	    ground_marker_py	    ground_marker_pz	    ground_marker_px	    ground_marker_py	    ground_marker_pz	    ground_marker_px	    ground_marker_py	    ground_marker_pz	    ground_marker_px	    ground_marker_py	    ground_marker_pz	    ground_marker_px	    ground_marker_py	    ground_marker_pz	    ground_marker_px	    ground_marker_py	    ground_marker_pz	    ground_marker_px	    ground_marker_py	    ground_marker_pz	
          0.48333332	          1.43656683	          0.75259501	         -0.22681308	        -11.79279327	         -1.12707055	         -2.91772699	          8.65328789	         -2.33687973	         -0.17460002	          6.08251905	         -3.34876919	          0.00000000	          0.00000000	          7.61977386	         -5.22099447	         -2.76556993	          3.12958622	          0.04607642	          0.00000000	          0.00000000	         17.62799835	          1.90773904	         -0.99839884	          1.36103225	          0.70118392	         -0.22775410	          1.35860050	          0.70360678	         -0.16493338	          1.36346388	          0.69876111	         -0.29057482	          1.33989584	          0.37406835	         -0.13942911	          1.34120154	          0.37802789	         -0.30841154	          1.35550892	          0.05742236	         -0.10960943	          1.33648098	          0.05916842	         -0.34364900	          1.43656683	          0.75259501	         -0.22681308	          1.43295193	          0.75619686	         -0.13342239	          1.44018185	          0.74899316	         -0.32020375	          1.30026770	          0.81619912	         -0.21400136	          1.29828954	          0.80941802	         -0.26912510	          1.33790529	          0.37807438	         -0.08912762	          1.34105098	          0.38081461	         -0.35833356	          1.33779204	          0.37543523	         -0.18962142	          1.34279001	          0.36625683	         -0.25502414	          1.34550059	          0.05993033	         -0.07773791	          1.33048010	          0.06298797	         -0.37740767	          1.35186279	          0.06510439	         -0.13731171	          1.33277488	          0.06015733	         -0.31385472	          1.29970813	          0.03899541	         -0.11259145	          1.28332329	          0.04077991	         -0.33860618	          1.39840972	          1.11525536	         -0.24390420	          1.45212924	          0.98136979	         -0.23995459	          1.32245743	          1.14952612	         -0.24490316	          1.39733315	          1.12778163	         -0.18367286	          1.40336812	          1.12737691	         -0.29886082	          1.45144606	          0.03997386	         -0.09922647	          1.43216062	          0.03855864	         -0.35744762	          1.34130657	          0.48504096	         -0.02110963	          1.47735286	          0.47577652	         -0.33486697	          1.38125038	          0.53810877	         -0.09170052	          1.41323483	          0.52993286	         -0.27410945	          1.38619816	          0.45357543	         -0.09895293	          1.39664018	          0.44378713	         -0.27503076	          1.31708193	          0.16804160	         -0.01519970	          1.42070544	          0.16318065	         -0.37183833	          1.32955861	          0.21921079	         -0.07908534	          1.36038125	          0.21637015	         -0.34413072	
          0.49166667	          1.43652081	          0.75258636	         -0.22681403	        -11.80085564	         -1.13159978	         -2.91685200	          8.66623497	         -2.33171606	         -0.17816347	          6.08231878	         -3.35381889	          0.00000000	          0.00000000	          7.63397789	         -5.22556400	         -2.76363683	          3.12813783	          0.04048110	          0.00000000	          0.00000000	         17.61586380	          1.90516043	         -0.97562242	          1.36097884	          0.70118594	         -0.22774819	          1.35855043	          0.70361328	         -0.16492750	          1.36340737	          0.69875854	         -0.29056886	          1.33987582	          0.37406650	         -0.13942675	          1.34118021	          0.37803522	         -0.30840495	          1.35551631	          0.05743044	         -0.10960560	          1.33648551	          0.05917693	         -0.34366143	          1.43652081	          0.75258636	         -0.22681403	          1.43291056	          0.75619501	         -0.13342078	          1.44013119	          0.74897772	         -0.32020727	          1.30022895	          0.81621075	         -0.21398629	          1.29823983	          0.80943179	         -0.26911300	          1.33788431	          0.37807176	         -0.08912525	          1.34102869	          0.38082200	         -0.35832700	          1.33773351	          0.37541693	         -0.18959759	          1.34274757	          0.36623710	         -0.25504762	          1.34550750	          0.05993773	         -0.07773420	          1.33048368	          0.06299800	         -0.37741980	          1.35179555	          0.06511356	         -0.13734348	          1.33273423	          0.06014725	         -0.31385288	          1.29969919	          0.03900572	         -0.11259604	          1.28333187	          0.04078391	         -0.33860165	          1.39843893	          1.11525118	         -0.24387322	          1.45211244	          0.98134702	         -0.23992695	          1.32231688	          1.14959991	         -0.24483447	          1.39739239	          1.12778664	         -0.18363923	          1.40337837	          1.12736297	         -0.29883778	          1.45144463	          0.03997172	         -0.09923393	          1.43216455	          0.03856185	         -0.35745695	          1.34129119	          0.48503757	         -0.02110622	          1.47730517	          0.47579715	         -0.33486471	          1.38120830	          0.53809565	         -0.09169335	          1.41318166	          0.52993208	         -0.27408308	          1.38615751	          0.45356312	         -0.09894336	          1.39658988	          0.44376972	         -0.27503163	          1.31706512	          0.16804488	         -0.01519644	          1.42070389	          0.16320063	         -0.37184247	          1.32948864	          0.21918771	         -0.07905525	          1.36036015	          0.21636239	         -0.34412637	
          0.50000000	          1.43647265	          0.75259256	         -0.22680765	        -11.80115509	         -1.13612163	         -2.91501856	          8.66925621	         -2.32692981	         -0.17978056	          6.08076763	         -3.35544753	          0.00000000	          0.00000000	          7.63843727	         -5.23110199	         -2.76171970	          3.12793040	          0.03563121	          0.00000000	          0.00000000	         17.62513161	          1.88729417	         -0.98070598	          1.36093032	          0.70119250	         -0.22773415	          1.35850573	          0.70362353	         -0.16491346	          1.36335492	          0.69876140	         -0.29055485	          1.33984947	          0.37408108	         -0.13941935	          1.34115243	          0.37805602	         -0.30839950	          1.35549808	          0.05745252	         -0.10959439	          1.33647954	          0.05921540	         -0.34368417	          1.43647265	          0.75259256	         -0.22680765	          1.43286788	          0.75620699	         -0.13340925	          1.44007754	          0.74897814	         -0.32020608	          1.30012000	          0.81623149	         -0.21398824	          1.29819584	          0.80944753	         -0.26910290	          1.33785927	          0.37808520	         -0.08911769	          1.34099948	          0.38084435	         -0.35832146	          1.33764112	          0.37542725	         -0.18956096	          1.34269583	          0.36625731	         -0.25507361	          1.34549022	          0.05996007	         -0.07772271	          1.33047652	          0.06303921	         -0.37744206	          1.35184431	          0.06512801	         -0.13730884	          1.33272624	          0.06019541	         -0.31386444	          1.29971468	          0.03901759	         -0.11258799	          1.28333700	          0.04080075	         -0.33860075	          1.39843667	          1.11528528	         -0.24384797	          1.45212924	          0.98139036	         -0.23984978	          1.32246959	          1.14957762	         -0.24483529	          1.39738560	          1.12784255	         -0.18363294	          1.40337658	          1.12737763	         -0.29880232	          1.45143163	          0.03997942	         -0.09922731	          1.43216050	          0.03857844	         -0.35746342	          1.34127533	          0.48504707	         -0.02110098	          1.47725964	          0.47582504	         -0.33485356	          1.38119555	          0.53810942	         -0.09170946	          1.41311574	          0.52996904	         -0.27407587	          1.38611209	          0.45358655	         -0.09893709	          1.39653194	          0.44379219	         -0.27503747	          1.31705976	          0.16806561	         -0.01519342	          1.42069948	          0.16323073	         -0.37184808	          1.32946968	          0.21922216	         -0.07903589	          1.36033797	          0.21639375	         -0.34413597	
          0.50833333	          1.43642294	          0.75260919	         -0.22679500	        -11.78611946	         -1.14040017	         -2.91215587	          8.65363693	         -2.32312918	         -0.17930245	          6.07802153	         -3.35244536	          0.00000000	          0.00000000	          7.62414932	         -5.23685837	         -2.76052141	          3.13024497	          0.03192509	          0.00000000	          0.00000000	         17.61860657	          1.88580132	         -1.02482438	          1.36089396	          0.70118928	         -0.22771329	          1.35847354	          0.70362276	         -0.16489254	          1.36331451	          0.69875580	         -0.29053402	          1.33981764	          0.37410602	         -0.13940868	          1.34111845	          0.37808293	         -0.30839536	          1.35544944	          0.05748084	         -0.10957859	          1.33646214	          0.05927199	         -0.34371319	          1.43642294	          0.75260919	         -0.22679500	          1.43282402	          0.75622743	         -0.13338938	          1.44002187	          0.74899095	         -0.32020062	          1.29983068	          0.81626338	         -0.21403988	          1.29815447	          0.80946082	         -0.26909339	          1.33783090	          0.37810871	         -0.08910678	          1.34096348	          0.38087425	         -0.35831714	          1.33751082	          0.37549067	         -0.18952371	          1.34264207	          0.36631134	         -0.25508288	          1.34544384	          0.05998963	         -0.07770629	          1.33045793	          0.06309931	         -0.37747043	          1.35188317	          0.06517948	         -0.13727328	          1.33271551	          0.06027301	         -0.31388313	          1.29975379	          0.03902418	         -0.11256673	          1.28333664	          0.04082284	         -0.33860585	          1.39842844	          1.11534190	         -0.24384622	          1.45213914	          0.98145527	         -0.23981263	          1.32262516	          1.14957464	         -0.24482980	          1.39733386	          1.12789810	         -0.18363637	          1.40340471	          1.12743592	         -0.29879233	          1.45141518	          0.03999310	         -0.09921075	          1.43215013	          0.03860462	         -0.35746661	          1.34125817	          0.48506370	         -0.02109334	          1.47722065	          0.47585356	         -0.33483255	          1.38116121	          0.53817260	         -0.09170379	          1.41306031	          0.53003502	         -0.27408534	          1.38604438	          0.45363471	         -0.09892592	          1.39647830	          0.44383624	         -0.27504006	          1.31706595	          0.16809447	         -0.01519068	          1.42068934	          0.16326475	         -0.37185454	          1.32945466	          0.21929838	         -0.07903023	          1.36031127	          0.21646193	         -0.34415811	
